<svg width="23" height="23" viewBox="0 0 23 23" fill="none" xmlns="http://www.w3.org/2000/svg">
<path fill-rule="evenodd" clip-rule="evenodd" d="M3.36827 3.37877C5.52494 1.21538 8.45001 0 11.5 0C14.55 0 17.4751 1.21538 19.6317 3.37877C21.7884 5.54215 23 8.47633 23 11.5358C23 14.5953 21.7884 17.5295 19.6317 19.6929C17.779 21.5514 15.3591 22.7103 12.7801 23V15.2006H15.7562L16.2235 12.1679H12.7795V10.5103C12.7795 9.2505 13.1899 8.13335 14.3647 8.13335H16.2525V5.48679L16.2347 5.48437C15.896 5.43843 15.1961 5.3435 13.8938 5.3435C11.126 5.3435 9.50324 6.80976 9.50324 10.1503V12.1679H6.6579V15.2006H9.50324V22.8965C7.19474 22.4882 5.04835 21.3782 3.36827 19.6929C1.2116 17.5295 0 14.5953 0 11.5358C0 8.47633 1.2116 5.54215 3.36827 3.37877Z" fill="#1976D2"/>
</svg>
