<svg width="23" height="23" viewBox="0 0 23 23" fill="none" xmlns="http://www.w3.org/2000/svg">
<path fill-rule="evenodd" clip-rule="evenodd" d="M11.5 17.02L11.5 11.5L5.98 11.5C5.98 12.156 6.09445 12.7853 6.30447 13.3689L6.30982 13.3648C7.007 15.3043 8.75474 16.7431 10.869 16.9843C11.0761 17.0079 11.2866 17.02 11.5 17.02ZM11.5 20.7C6.4193 20.7 2.3 16.5807 2.3 11.5C2.3 11.5 2.3 11.5 2.3 11.5H0V21.4667C0 22.3135 0.686496 23 1.53333 23H11.5L11.5 20.7Z" fill="#FFC107"/>
<path fill-rule="evenodd" clip-rule="evenodd" d="M21.4667 0H11.5V2.3C13.9233 2.3 16.1212 3.24438 17.7643 4.77572L15.1621 7.37794C14.1873 6.51084 12.9071 5.98 11.5 5.98V9.66H19.78V9.69818H20.5211C20.6365 10.281 20.7 10.8831 20.7 11.5H23V1.53333C23 0.686497 22.3135 0 21.4667 0Z" fill="#1976D2"/>
<path fill-rule="evenodd" clip-rule="evenodd" d="M1.53333 0C0.686497 0 0 0.686496 0 1.53333V11.5H2.3C2.3 6.73684 5.92048 2.81866 10.5594 2.3475C10.8687 2.31609 11.1825 2.3 11.5 2.3V0H1.53333ZM11.5 5.98C11.1305 5.98 10.7694 6.01632 10.4203 6.08557C8.57994 6.45096 7.07089 7.73256 6.38342 9.4346L6.38035 9.43235C6.12216 10.071 5.98 10.7689 5.98 11.5H11.5V9.66V5.98Z" fill="#FF3D00"/>
<path fill-rule="evenodd" clip-rule="evenodd" d="M16.6994 13.34C16.6766 13.4043 16.6527 13.468 16.6277 13.5312C16.2516 14.479 15.6198 15.2967 14.8194 15.9027C14.8196 15.9024 14.8205 15.9023 14.8207 15.9022C13.8971 16.6018 12.7489 17.02 11.5 17.02V13.34H16.6994ZM20.7 11.5C20.7 15.5284 18.2203 17.8652 17.7394 18.2608C16.0996 19.7749 13.9077 20.7 11.5 20.7V23H21.4667C22.3135 23 23 22.3135 23 21.4667V11.5H20.7Z" fill="#4CAF50"/>
</svg>
