<svg width="23" height="23" viewBox="0 0 23 23" fill="none" xmlns="http://www.w3.org/2000/svg">
<path d="M22.7763 9.24772H21.85V9.2H11.5V13.8H17.9992C17.0511 16.4778 14.5032 18.4 11.5 18.4C7.68947 18.4 4.6 15.3105 4.6 11.5C4.6 7.68947 7.68947 4.6 11.5 4.6C13.2589 4.6 14.8591 5.26355 16.0776 6.34742L19.3303 3.09465C17.2764 1.18047 14.5291 0 11.5 0C5.14912 0 0 5.14912 0 11.5C0 17.8509 5.14912 23 11.5 23C17.8509 23 23 17.8509 23 11.5C23 10.7289 22.9206 9.97625 22.7763 9.24772Z" fill="#FFC107"/>
<path d="M1.32594 6.14732L5.10427 8.91825C6.12662 6.3871 8.60257 4.6 11.5 4.6C13.2589 4.6 14.8591 5.26355 16.0776 6.34742L19.3303 3.09465C17.2764 1.18047 14.5291 0 11.5 0C7.08284 0 3.25219 2.49377 1.32594 6.14732Z" fill="#FF3D00"/>
<path d="M11.5 23C14.4704 23 17.1695 21.8632 19.2102 20.0146L15.6509 17.0028C14.4963 17.8773 13.0611 18.4 11.5 18.4C8.50885 18.4 5.96907 16.4927 5.01227 13.8311L1.26213 16.7204C3.16538 20.4447 7.03052 23 11.5 23Z" fill="#4CAF50"/>
<path d="M22.7763 9.24768H21.85V9.19995H11.5V13.8H17.9992C17.5438 15.0862 16.7164 16.1954 15.6492 17.0033C15.6498 17.0027 15.6503 17.0027 15.6509 17.0021L19.2102 20.014C18.9583 20.2428 23 17.25 23 11.5C23 10.7289 22.9206 9.9762 22.7763 9.24768Z" fill="#1976D2"/>
</svg>
