<svg width="17" height="14" viewBox="0 0 17 14" fill="none" xmlns="http://www.w3.org/2000/svg">
<path d="M0.159634 12.5109L16.044 0.0932345C16.0876 0.0583521 16.1376 0.0323927 16.1912 0.0168384C16.2448 0.00128403 16.3009 -0.00356058 16.3564 0.00258114C16.4119 0.00872287 16.4656 0.0257306 16.5145 0.0526334C16.5634 0.0795362 16.6065 0.115807 16.6414 0.159375L16.907 0.491141C16.942 0.534724 16.968 0.584774 16.9836 0.638426C16.9992 0.692079 17.0041 0.748281 16.9979 0.803817C16.9918 0.859353 16.9748 0.913132 16.9478 0.962078C16.9209 1.01102 16.8845 1.05418 16.8409 1.08906L0.956509 13.5068C0.912941 13.5416 0.86293 13.5676 0.809329 13.5832C0.755728 13.5987 0.699589 13.6036 0.644116 13.5974C0.588643 13.5913 0.534923 13.5743 0.486023 13.5474C0.437123 13.5205 0.394001 13.4842 0.359119 13.4406L0.0934936 13.1089C0.0585293 13.0653 0.0325017 13.0152 0.016901 12.9616C0.00130037 12.9079 -0.00356756 12.8517 0.00257568 12.7962C0.00871893 12.7406 0.0257532 12.6869 0.052703 12.6379C0.0796528 12.589 0.115989 12.5458 0.159634 12.5109V12.5109ZM9.11677 3.89061L5.53642 6.68977C5.59538 5.09761 6.89376 3.825 8.50026 3.825C8.70749 3.82539 8.91411 3.84738 9.11677 3.89061ZM7.88374 9.70966L11.4641 6.9105C11.4049 8.50239 10.1065 9.775 8.50026 9.775C8.29305 9.77456 8.08644 9.75266 7.88374 9.70966V9.70966ZM8.50026 2.975C5.87987 2.975 3.47756 4.43594 2.18024 6.8C2.49825 7.38182 2.89119 7.91942 3.34899 8.39906L2.34653 9.18266C1.7884 8.58558 1.31553 7.91419 0.941368 7.18755C0.880604 7.06735 0.848946 6.93455 0.848946 6.79987C0.848946 6.66518 0.880604 6.53239 0.941368 6.41219C2.38318 3.60161 5.23493 1.7 8.50026 1.7C9.4751 1.7 10.4051 1.88594 11.2795 2.19964L10.0467 3.16359C9.54363 3.04938 9.02832 2.975 8.50026 2.975ZM8.50026 10.625C11.1206 10.625 13.5227 9.16406 14.8203 6.8C14.5018 6.21819 14.1085 5.68067 13.6502 5.2012L14.6527 4.41761C15.2107 5.0146 15.6835 5.68591 16.0576 6.41245C16.1183 6.53265 16.15 6.66545 16.15 6.80013C16.15 6.93482 16.1183 7.06762 16.0576 7.18781C14.6171 9.99839 11.7653 11.9 8.50026 11.9C7.52542 11.9 6.59546 11.7127 5.72102 11.4004L6.95379 10.4367C7.45688 10.5506 7.97193 10.625 8.50026 10.625Z" fill="black"/>
</svg>
