<svg width="17" height="14" viewBox="0 0 17 14" fill="none" xmlns="http://www.w3.org/2000/svg">
<g clip-path="url(#clip0)">
<path d="M8.50007 10.6251C10.5148 10.6251 12.1458 9.06559 12.2958 7.08934L15.0822 4.93591C15.4485 5.39544 15.7856 5.88127 16.0576 6.41252C16.1184 6.53272 16.15 6.66552 16.15 6.8002C16.15 6.93489 16.1184 7.06768 16.0576 7.18788C14.6171 9.99846 11.7654 11.9001 8.50007 11.9001C7.78527 11.9001 7.09571 11.7938 6.43112 11.6222L7.80945 10.5557C8.03708 10.5997 8.26824 10.6229 8.50007 10.6251ZM0.164236 12.1684L3.10072 9.89885C2.2087 9.14711 1.47508 8.22549 0.942516 7.18762C0.881752 7.06742 0.850094 6.93462 0.850094 6.79994C0.850094 6.66525 0.881752 6.53245 0.942516 6.41226C2.383 3.60168 5.23475 1.70007 8.50007 1.70007C9.86764 1.70173 11.213 2.04601 12.4133 2.70148L15.7925 0.0895853C15.8366 0.0552952 15.887 0.0300244 15.9408 0.015217C15.9947 0.000409669 16.0509 -0.00364398 16.1063 0.0032877C16.1617 0.0102194 16.2152 0.0280005 16.2637 0.0556151C16.3122 0.0832296 16.3549 0.120136 16.3891 0.164226L16.9105 0.83546C16.9797 0.92444 17.0107 1.03725 16.9967 1.14908C16.9827 1.26091 16.9249 1.3626 16.8359 1.43179L1.20761 13.5106C1.16354 13.5448 1.11315 13.5701 1.05932 13.5849C1.00548 13.5997 0.949252 13.6038 0.893848 13.5969C0.838444 13.5899 0.784948 13.5721 0.736418 13.5445C0.687889 13.5169 0.645277 13.48 0.611017 13.4359L0.0893296 12.7647C0.0201897 12.6757 -0.0107605 12.5628 0.00328693 12.451C0.0173344 12.3392 0.0752291 12.2375 0.164236 12.1684ZM5.04429 8.39648L6.0882 7.58951C6.00029 7.33543 5.95365 7.0689 5.95007 6.80007C5.94489 6.40648 6.03209 6.01717 6.20466 5.66339C6.37723 5.30962 6.63036 5.00125 6.94373 4.76305C7.2571 4.52485 7.62196 4.36347 8.00902 4.29186C8.39607 4.22026 8.79452 4.24042 9.17237 4.35074C9.01219 4.56778 8.92555 4.83032 8.92507 5.10007C8.92903 5.18983 8.94275 5.2789 8.96598 5.36569L10.9212 3.85455C10.242 3.28697 9.3852 2.97572 8.50007 2.97507C7.99769 2.97479 7.50017 3.07354 7.03598 3.26566C6.57178 3.45779 6.15001 3.73952 5.79477 4.09476C5.43953 4.45 5.15779 4.87178 4.96567 5.33598C4.77354 5.80017 4.6748 6.29768 4.67507 6.80007C4.67507 7.37462 4.81559 7.91012 5.04429 8.39674V8.39648Z" fill="black"/>
</g>
<defs>
<clipPath id="clip0">
<rect width="17" height="13.6" fill="white" transform="matrix(-1 0 0 1 17 0)"/>
</clipPath>
</defs>
</svg>
