<svg width="17" height="13" viewBox="0 0 17 13" fill="none" xmlns="http://www.w3.org/2000/svg">
<path d="M8.5 3.25C8.18719 3.25489 7.8767 3.30458 7.57799 3.39757C7.71616 3.64056 7.78973 3.91492 7.79167 4.19444C7.79167 4.41149 7.74892 4.62641 7.66586 4.82694C7.5828 5.02746 7.46105 5.20966 7.30758 5.36313C7.1541 5.51661 6.9719 5.63835 6.77138 5.72141C6.57085 5.80447 6.35593 5.84722 6.13889 5.84722C5.85937 5.84528 5.58501 5.77171 5.34201 5.63354C5.1503 6.29843 5.17264 7.00678 5.40588 7.65826C5.63912 8.30975 6.07142 8.87133 6.64156 9.26347C7.2117 9.65561 7.89076 9.85842 8.58257 9.84318C9.27438 9.82794 9.94385 9.59541 10.4962 9.17855C11.0485 8.76168 11.4556 8.1816 11.6599 7.52048C11.8643 6.85935 11.8554 6.1507 11.6346 5.49491C11.4138 4.83911 10.9922 4.26941 10.4296 3.8665C9.86706 3.4636 9.19197 3.24791 8.5 3.25V3.25ZM16.8973 6.12465C15.2968 3.00179 12.1281 0.888889 8.5 0.888889C4.87186 0.888889 1.70236 3.00326 0.102707 6.12495C0.035192 6.2585 1.52588e-05 6.40605 1.52588e-05 6.5557C1.52588e-05 6.70535 0.035192 6.85291 0.102707 6.98646C1.70325 10.1093 4.87186 12.2222 8.5 12.2222C12.1281 12.2222 15.2976 10.1078 16.8973 6.98616C16.9648 6.85261 17 6.70506 17 6.55541C17 6.40576 16.9648 6.25821 16.8973 6.12465V6.12465ZM8.5 10.8056C5.58845 10.8056 2.91922 9.18229 1.47776 6.55556C2.91922 3.92882 5.58816 2.30556 8.5 2.30556C11.4118 2.30556 14.0808 3.92882 15.5222 6.55556C14.0811 9.18229 11.4118 10.8056 8.5 10.8056Z" fill="black"/>
</svg>
