<svg width="23" height="19" viewBox="0 0 23 19" fill="none" xmlns="http://www.w3.org/2000/svg">
<g clip-path="url(#clip0)">
<path d="M22.425 7.475H20.125V5.175C20.125 4.85875 19.8662 4.6 19.55 4.6H18.4C18.0837 4.6 17.825 4.85875 17.825 5.175V7.475H15.525C15.2087 7.475 14.95 7.73375 14.95 8.05V9.2C14.95 9.51625 15.2087 9.775 15.525 9.775H17.825V12.075C17.825 12.3912 18.0837 12.65 18.4 12.65H19.55C19.8662 12.65 20.125 12.3912 20.125 12.075V9.775H22.425C22.7412 9.775 23 9.51625 23 9.2V8.05C23 7.73375 22.7412 7.475 22.425 7.475ZM8.05 9.2C10.5908 9.2 12.65 7.14078 12.65 4.6C12.65 2.05922 10.5908 0 8.05 0C5.50922 0 3.45 2.05922 3.45 4.6C3.45 7.14078 5.50922 9.2 8.05 9.2ZM11.27 10.35H10.6698C9.87203 10.7166 8.98438 10.925 8.05 10.925C7.11563 10.925 6.23156 10.7166 5.43016 10.35H4.83C2.16344 10.35 0 12.5134 0 15.18V16.675C0 17.6273 0.772656 18.4 1.725 18.4H14.375C15.3273 18.4 16.1 17.6273 16.1 16.675V15.18C16.1 12.5134 13.9366 10.35 11.27 10.35Z" fill="black"/>
</g>
<defs>
<clipPath id="clip0">
<rect width="23" height="18.4" fill="white"/>
</clipPath>
</defs>
</svg>
