<svg xmlns="http://www.w3.org/2000/svg" width="18" height="16.5" viewBox="0 0 18 16.5"><defs><style>.a{fill:#707070;}</style></defs><g transform="translate(0 -21.333)"><g transform="translate(0 21.333)"><path class="a" d="M14.155,21.362a3.6,3.6,0,0,0-2.062,1.069L3.765,30.758a2.506,2.506,0,0,0-.732,1.34,2.345,2.345,0,0,0,2.7,2.7,2.5,2.5,0,0,0,1.341-.73l7.6-7.6a.375.375,0,0,0,0-.53l-.53-.53a.375.375,0,0,0-.53,0L5.936,33.087A.841.841,0,0,1,4.746,31.9l8.507-8.507a1.889,1.889,0,0,1,1.345-.557,1.92,1.92,0,0,1,1.367,3.25L7.1,35.257a3.394,3.394,0,0,1-2,1.052,3.214,3.214,0,0,1-3.587-3.492,3.341,3.341,0,0,1,1.006-2.065L10.765,22.5a.375.375,0,0,0,0-.53l-.53-.53a.375.375,0,0,0-.53,0L1.377,29.771a4.713,4.713,0,1,0,6.7,6.629l8.965-9.275a3.419,3.419,0,0,0-2.889-5.764Z" transform="translate(0 -21.333)"/></g></g></svg>