<svg xmlns="http://www.w3.org/2000/svg" width="30" height="30.398" viewBox="0 0 30 30.398"><defs><style>.a{fill:#707070;}</style></defs><g transform="translate(-3.137 0.001)"><g transform="translate(3.137 -0.001)"><path class="a" d="M33.1,21.318a3.245,3.245,0,0,0-.128-.524,3.334,3.334,0,0,0-3.7-2.159.966.966,0,0,1-1.1-.8l-.8-5.128a11.184,11.184,0,0,0-8.015-9.086,4.313,4.313,0,0,0-8.525,1.311A10.792,10.792,0,0,0,5.939,15.734L6.8,21.192a.973.973,0,0,1-.8,1.1,3.335,3.335,0,0,0-2.857,3.19,3.245,3.245,0,0,0,3.211,3.278h.034a3.328,3.328,0,0,0,.505-.039l3.329-.524a4.291,4.291,0,0,0,7.95-1.25L30.4,25.027A3.245,3.245,0,0,0,33.1,21.318ZM14.776,2.3a2.272,2.272,0,0,1,.341-.027,2.174,2.174,0,0,1,1.8.973h-.052a10.31,10.31,0,0,0-1.209.035,10.987,10.987,0,0,0-1.26.195c-.09.018-.178.044-.267.066-.341.08-.675.174-1,.286-.032.01-.066.015-.1.027A2.163,2.163,0,0,1,14.776,2.3Zm-.822,25.933a2.134,2.134,0,0,1-1.273-.42l3.029-.475A2.164,2.164,0,0,1,13.954,28.234Zm16.86-5.849a1.082,1.082,0,0,1-.757.506L17.028,24.94l-6.331,1-4.143.649a1.069,1.069,0,0,1-.874-.249A1.081,1.081,0,0,1,5.3,25.5a1.174,1.174,0,0,1,1.03-1.067,3.137,3.137,0,0,0,2.6-3.576L8.076,15.4a8.676,8.676,0,0,1,4.376-8.931.588.588,0,0,0,.055-.022,8.653,8.653,0,0,1,3.347-1.01,7.812,7.812,0,0,1,1.069-.021l.177.009a8.506,8.506,0,0,1,1.1.138h.035a8.989,8.989,0,0,1,6.992,7.474l.807,5.128a3.129,3.129,0,0,0,3.576,2.606,1.174,1.174,0,0,1,1.307.7A1.082,1.082,0,0,1,30.814,22.385Z" transform="translate(-3.137 0.001)"/></g></g></svg>