<svg xmlns="http://www.w3.org/2000/svg" width="22.315" height="24" viewBox="0 0 22.315 24"><defs><style>.a{fill:#707070;}</style></defs><g transform="translate(-0.54)"><g transform="translate(0.54)"><path class="a" d="M18.447,24H4.95A4.415,4.415,0,0,1,.54,19.592V4.41A4.415,4.415,0,0,1,4.95,0h13.5a4.414,4.414,0,0,1,4.408,4.41V19.592A4.412,4.412,0,0,1,18.447,24ZM4.95,2.036A2.376,2.376,0,0,0,2.576,4.41V19.592A2.377,2.377,0,0,0,4.95,21.965h13.5a2.377,2.377,0,0,0,2.373-2.373V4.41a2.376,2.376,0,0,0-2.373-2.373Z" transform="translate(-0.54)"/></g></g></svg>