<svg xmlns="http://www.w3.org/2000/svg" width="19.001" height="19" viewBox="0 0 19.001 19"><defs><style>.a{fill:#707070;}</style></defs><g transform="translate(0 -0.016)"><g transform="translate(0 0.016)"><path class="a" d="M11.593,9.516l7.1-7.1a1.041,1.041,0,0,0,0-1.47L18.075.319a1.042,1.042,0,0,0-1.47,0l-7.1,7.1L2.4.319a1.041,1.041,0,0,0-1.469,0L.3.942a1.04,1.04,0,0,0,0,1.47l7.1,7.1L.3,16.62a1.042,1.042,0,0,0,0,1.47l.623.622a1.041,1.041,0,0,0,1.469,0l7.1-7.1,7.1,7.1a1.031,1.031,0,0,0,.735.3h0a1.031,1.031,0,0,0,.735-.3l.623-.622a1.042,1.042,0,0,0,0-1.47Z" transform="translate(0 -0.016)"/></g></g></svg>