<svg xmlns="http://www.w3.org/2000/svg" width="16" height="9.451" viewBox="0 0 16 9.451"><defs><style>.a{fill:#707070;}</style></defs><g transform="translate(0 -100.698)"><g transform="translate(0 100.698)"><path class="a" d="M15.744,101.488l-.524-.528a.877.877,0,0,0-1.238,0L8,106.939l-5.985-5.985a.877.877,0,0,0-1.238,0l-.524.524a.876.876,0,0,0,0,1.238l7.126,7.152a.9.9,0,0,0,.621.281h0a.894.894,0,0,0,.619-.281l7.12-7.133A.884.884,0,0,0,16,102.11.875.875,0,0,0,15.744,101.488Z" transform="translate(0 -100.698)"/></g></g></svg>