<svg xmlns="http://www.w3.org/2000/svg" width="21.653" height="21.653" viewBox="0 0 21.653 21.653"><defs><style>.a{fill:#707070;}</style></defs><g transform="translate(7.655 7.655)"><path class="a" d="M184.172,181a3.172,3.172,0,1,0,3.172,3.172A3.176,3.176,0,0,0,184.172,181Z" transform="translate(-181 -181)"/></g><path class="a" d="M21.653,12.616V9.037l-2.935-.578a8.152,8.152,0,0,0-.639-1.537l1.638-2.457L17.187,1.936,14.73,3.574a8.151,8.151,0,0,0-1.537-.639L12.616,0H9.037L8.459,2.935a8.152,8.152,0,0,0-1.537.639L4.465,1.936,1.936,4.465,3.574,6.922a8.151,8.151,0,0,0-.639,1.537L0,9.037v3.578l2.935.578a8.152,8.152,0,0,0,.639,1.537L1.936,17.187l2.529,2.529,2.457-1.638a8.151,8.151,0,0,0,1.537.639l.578,2.935h3.578l.578-2.935a8.152,8.152,0,0,0,1.537-.639l2.457,1.638,2.529-2.529L18.079,14.73a8.151,8.151,0,0,0,.639-1.537ZM10.826,15.267a4.441,4.441,0,1,1,4.441-4.441A4.446,4.446,0,0,1,10.826,15.267Z"/></svg>