<svg xmlns="http://www.w3.org/2000/svg" width="30.866" height="30.503" viewBox="0 0 30.866 30.503"><defs><style>.a{fill:#707070;stroke:#707070;stroke-width:0.5px;}</style></defs><path class="a" d="M29.694,13.05l0,0L17.453.809a2.762,2.762,0,0,0-3.906,0L1.314,13.041l-.012.013A2.761,2.761,0,0,0,3.139,17.76c.028,0,.057,0,.085,0h.488V26.77A3.236,3.236,0,0,0,6.945,30h4.788a.879.879,0,0,0,.879-.879V22.063a1.477,1.477,0,0,1,1.475-1.475h2.824a1.476,1.476,0,0,1,1.475,1.475v7.061a.879.879,0,0,0,.879.879h4.788a3.236,3.236,0,0,0,3.233-3.233V17.764h.452a2.763,2.763,0,0,0,1.955-4.714Zm-1.245,2.662a1,1,0,0,1-.71.294H26.408a.879.879,0,0,0-.879.879V26.77a1.476,1.476,0,0,1-1.475,1.475H20.145V22.063a3.236,3.236,0,0,0-3.233-3.233H14.088a3.237,3.237,0,0,0-3.233,3.233v6.182H6.945A1.477,1.477,0,0,1,5.47,26.77V16.885a.879.879,0,0,0-.879-.879H3.283l-.041,0a1,1,0,0,1-.692-1.713h0L14.79,2.052a1,1,0,0,1,1.42,0L28.445,14.288l.006.005A1.006,1.006,0,0,1,28.449,15.712Zm0,0" transform="translate(-0.067 0.25)"/></svg>