<svg xmlns="http://www.w3.org/2000/svg" width="24.66" height="18.562" viewBox="0 0 24.66 18.562"><defs><style>.a{fill:#707070;}</style></defs><g transform="translate(0 -7.434)"><path class="a" d="M31.641,48.354H15.15a1.23,1.23,0,1,1,0-2.461H31.64a1.23,1.23,0,0,1,0,2.461Z" transform="translate(-8.211 -22.685)"/><path class="a" d="M31.641,29.523H15.15a1.23,1.23,0,1,1,0-2.461H31.64a1.23,1.23,0,0,1,0,2.461Z" transform="translate(-8.211 -11.577)"/><path class="a" d="M31.641,10.692H15.15a1.23,1.23,0,1,1,0-2.461H31.64a1.23,1.23,0,0,1,0,2.461Z" transform="translate(-8.211 -0.47)"/><circle class="a" cx="1.653" cy="1.653" r="1.653" transform="translate(0 7.434)"/><circle class="a" cx="1.653" cy="1.653" r="1.653" transform="translate(0 15.063)"/><circle class="a" cx="1.653" cy="1.653" r="1.653" transform="translate(0 22.691)"/></g></svg>