<svg xmlns="http://www.w3.org/2000/svg" width="31" height="23.5" viewBox="0 0 31 23.5"><defs><style>.a{fill:#707070;stroke:#707070;}</style></defs><g transform="translate(0.5 -63.5)"><g transform="translate(0 64)"><path class="a" d="M27.5,64H2.5A2.5,2.5,0,0,0,0,66.5V84a2.5,2.5,0,0,0,2.5,2.5h25A2.5,2.5,0,0,0,30,84V66.5A2.5,2.5,0,0,0,27.5,64Zm-25,1.25h25a1.179,1.179,0,0,1,.193.039L15.664,75.055a1.335,1.335,0,0,1-1.284.033l-12.074-9.8A1.171,1.171,0,0,1,2.5,65.25ZM28.75,84a1.252,1.252,0,0,1-1.25,1.25H2.5A1.252,1.252,0,0,1,1.25,84V66.5a1.221,1.221,0,0,1,.08-.394L13.647,76.1a2.477,2.477,0,0,0,2.66.028.577.577,0,0,0,.1-.068l12.26-9.953a1.22,1.22,0,0,1,.08.395V84Z" transform="translate(0 -64)"/></g></g></svg>