<svg xmlns="http://www.w3.org/2000/svg" width="118.168" height="163.185" viewBox="0 0 118.168 163.185"><defs><style>.a{fill:#e1c3a0;}.b{fill:#eff2fa;}.c{fill:#c7cfe2;}.d{fill:#afb9d2;}.e{fill:#82889d;}.f{opacity:0.97;}</style></defs><g transform="translate(-70.621)"><path class="a" d="M177.535,187.242H81.875a11.254,11.254,0,0,1-11.254-11.254V46.565A11.254,11.254,0,0,1,81.875,35.311h95.66a11.254,11.254,0,0,1,11.254,11.254V175.987A11.254,11.254,0,0,1,177.535,187.242Z" transform="translate(0 -24.057)"/><path class="b" d="M195.577,196.842H99.917a2.814,2.814,0,0,1-2.814-2.814V64.607a2.814,2.814,0,0,1,2.814-2.814h95.66a2.814,2.814,0,0,1,2.814,2.814V194.029A2.814,2.814,0,0,1,195.577,196.842Z" transform="translate(-18.042 -42.098)"/><path class="c" d="M224.769,11.254h-8.441V8.44a8.441,8.441,0,0,0-16.881,0v2.814h-8.441a5.627,5.627,0,0,0-5.627,5.627v5.627H230.4V16.881A5.627,5.627,0,0,0,224.769,11.254Zm-16.881,0A2.814,2.814,0,1,1,210.7,8.44,2.814,2.814,0,0,1,207.887,11.254Z" transform="translate(-78.182)"/><path class="d" d="M224.381,67.419H179.365a2.814,2.814,0,0,1-2.814-2.814h0a2.814,2.814,0,0,1,2.814-2.814h45.016a2.814,2.814,0,0,1,2.814,2.814h0A2.813,2.813,0,0,1,224.381,67.419Z" transform="translate(-72.168 -42.098)"/><path class="e" d="M143.668,160.936a2.8,2.8,0,0,1-1.989-.824l-8.441-8.441a2.813,2.813,0,0,1,3.979-3.979l6.451,6.452,12.079-12.079a2.813,2.813,0,0,1,3.979,3.979l-14.068,14.068A2.8,2.8,0,0,1,143.668,160.936Z" transform="translate(-42.098 -96.225)"/><g class="f" transform="translate(124.078 47.83)"><path class="d" d="M263.666,155.7H241.158a2.814,2.814,0,0,1-2.814-2.814h0a2.814,2.814,0,0,1,2.814-2.814h22.508a2.814,2.814,0,0,1,2.814,2.814h0A2.814,2.814,0,0,1,263.666,155.7Z" transform="translate(-238.344 -150.068)"/></g><g class="f" transform="translate(124.078 59.084)"><path class="c" d="M277.734,191.005H241.158a2.814,2.814,0,0,1-2.814-2.814h0a2.814,2.814,0,0,1,2.814-2.814h36.576a2.814,2.814,0,0,1,2.814,2.814h0A2.814,2.814,0,0,1,277.734,191.005Z" transform="translate(-238.344 -185.378)"/></g><path class="e" d="M143.668,372.8a2.8,2.8,0,0,1-1.989-.824l-8.441-8.441a2.813,2.813,0,0,1,3.979-3.979l6.451,6.452,12.079-12.079a2.813,2.813,0,0,1,3.979,3.979l-14.068,14.068A2.8,2.8,0,0,1,143.668,372.8Z" transform="translate(-42.098 -240.562)"/><g class="f" transform="translate(124.078 115.354)"><path class="d" d="M263.666,367.557H241.158a2.814,2.814,0,0,1-2.814-2.814h0a2.814,2.814,0,0,1,2.814-2.814h22.508a2.814,2.814,0,0,1,2.814,2.814h0A2.814,2.814,0,0,1,263.666,367.557Z" transform="translate(-238.344 -361.93)"/></g><g class="f" transform="translate(124.078 126.609)"><path class="c" d="M277.734,402.868H241.158a2.814,2.814,0,0,1-2.814-2.814h0a2.814,2.814,0,0,1,2.814-2.814h36.576a2.814,2.814,0,0,1,2.814,2.814h0A2.814,2.814,0,0,1,277.734,402.868Z" transform="translate(-238.344 -397.241)"/></g><path class="e" d="M143.668,266.867a2.8,2.8,0,0,1-1.989-.824l-8.441-8.441a2.813,2.813,0,0,1,3.979-3.979l6.451,6.452L155.747,248a2.813,2.813,0,0,1,3.979,3.979l-14.068,14.068A2.8,2.8,0,0,1,143.668,266.867Z" transform="translate(-42.098 -168.393)"/><g class="f" transform="translate(124.078 81.592)"><path class="d" d="M263.666,261.626H241.158a2.814,2.814,0,0,1-2.814-2.814h0A2.814,2.814,0,0,1,241.158,256h22.508a2.814,2.814,0,0,1,2.814,2.814h0A2.814,2.814,0,0,1,263.666,261.626Z" transform="translate(-238.344 -255.999)"/></g><g class="f" transform="translate(124.078 92.846)"><path class="c" d="M277.734,296.937H241.158a2.814,2.814,0,0,1-2.814-2.814h0a2.814,2.814,0,0,1,2.814-2.814h36.576a2.814,2.814,0,0,1,2.814,2.814h0A2.814,2.814,0,0,1,277.734,296.937Z" transform="translate(-238.344 -291.31)"/></g></g></svg>