<svg xmlns="http://www.w3.org/2000/svg" width="19" height="20.727" viewBox="0 0 19 20.727"><defs><style>.a{fill:#707070;}</style></defs><path class="a" d="M321.232,19.282A3.282,3.282,0,1,1,317.95,16,3.282,3.282,0,0,1,321.232,19.282Zm0,0" transform="translate(-302.989 -15.243)"/><path class="a" d="M302.707,8.079a4.039,4.039,0,1,1,4.039-4.039A4.043,4.043,0,0,1,302.707,8.079Zm0-6.564a2.525,2.525,0,1,0,2.524,2.524A2.527,2.527,0,0,0,302.707,1.515Zm0,0" transform="translate(-287.746)"/><path class="a" d="M321.232,360.614a3.282,3.282,0,1,1-3.282-3.282A3.282,3.282,0,0,1,321.232,360.614Zm0,0" transform="translate(-302.989 -343.926)"/><path class="a" d="M302.707,349.411a4.039,4.039,0,1,1,4.039-4.039A4.043,4.043,0,0,1,302.707,349.411Zm0-6.564a2.525,2.525,0,1,0,2.524,2.525A2.527,2.527,0,0,0,302.707,342.847Zm0,0" transform="translate(-287.746 -328.683)"/><path class="a" d="M22.564,189.95a3.282,3.282,0,1,1-3.282-3.282A3.282,3.282,0,0,1,22.564,189.95Zm0,0" transform="translate(-15.243 -179.586)"/><path class="a" d="M4.039,178.746a4.039,4.039,0,1,1,4.039-4.039A4.043,4.043,0,0,1,4.039,178.746Zm0-6.564a2.524,2.524,0,1,0,2.525,2.524A2.527,2.527,0,0,0,4.039,172.183Zm0,0" transform="translate(0 -164.343)"/><path class="a" d="M115.074,97.577a.722.722,0,0,1-.631-.51,1.248,1.248,0,0,1,.271-1.378l6.724-5.342c.347-.278.79-.108.989.378a1.248,1.248,0,0,1-.271,1.378l-6.725,5.342A.571.571,0,0,1,115.074,97.577Zm0,0" transform="translate(-108.936 -86.832)"/><path class="a" d="M121.819,273.581a.572.572,0,0,1-.358-.132l-6.725-5.342a1.248,1.248,0,0,1-.271-1.378c.2-.485.641-.655.988-.378l6.725,5.342a1.248,1.248,0,0,1,.271,1.378A.723.723,0,0,1,121.819,273.581Zm0,0" transform="translate(-108.957 -256.237)"/></svg>