<svg xmlns="http://www.w3.org/2000/svg" width="30.013" height="27.265" viewBox="0 0 30.013 27.265"><defs><style>.a{fill:#707070;}</style></defs><g transform="translate(-0.023 0)"><g transform="translate(0.023 0)"><path class="a" d="M29.485,9.706a2.246,2.246,0,0,0-1.323-.642h0l-7.977-1L17.029,1.211A2.25,2.25,0,0,0,14.2.153a2.078,2.078,0,0,0-1.165,1.058L9.874,8.063l-7.977,1A2.015,2.015,0,0,0,.044,11.291a1.927,1.927,0,0,0,.707,1.2l6.01,4.868L5.526,25a1.887,1.887,0,0,0,.995,1.96,2.317,2.317,0,0,0,2.368-.04l6.141-3.794,6.141,3.8a2.308,2.308,0,0,0,3.012-.524,1.829,1.829,0,0,0,.351-1.4L23.3,17.361l6.01-4.868A1.85,1.85,0,0,0,29.485,9.706ZM21.44,16.261a.926.926,0,0,0-.346.869l1.286,8.179-6.744-4.165a1.162,1.162,0,0,0-1.2,0l-6.784,4.14,1.32-8.158a.926.926,0,0,0-.346-.865L2.188,11l8.584-1.076a1.062,1.062,0,0,0,.842-.589l3.428-7.383a.042.042,0,0,1,.009.015l3.393,7.364a1.062,1.062,0,0,0,.842.589l8.595,1.124Z" transform="translate(-0.023 0)"/></g></g></svg>