<svg xmlns="http://www.w3.org/2000/svg" width="19.95" height="19.95" viewBox="0 0 19.95 19.95"><defs><style>.a{fill:#707070;}</style></defs><g transform="translate(-0.109 0)"><path class="a" d="M14.008,11.838A7.409,7.409,0,0,0,12.184,1.38,7.751,7.751,0,0,0,1.517,3.168,7.408,7.408,0,0,0,3.341,13.626a7.78,7.78,0,0,0,8.314.337l5.642,5.5a1.624,1.624,0,0,0,2.264.057,1.548,1.548,0,0,0,.058-2.219c-.019-.02-.038-.038-.058-.057Zm-6.25.513A4.888,4.888,0,0,1,2.82,7.514a4.887,4.887,0,0,1,4.934-4.84A4.887,4.887,0,0,1,12.69,7.5a4.889,4.889,0,0,1-4.929,4.847Zm0,0" transform="translate(0 0)"/></g></svg>