<svg xmlns="http://www.w3.org/2000/svg" width="28" height="31.413" viewBox="0 0 28 31.413"><defs><style>.a{fill:#707070;}</style></defs><path class="a" d="M95.493,15.132a8.7,8.7,0,0,0,5.983-2.217,7.011,7.011,0,0,0,0-10.7,9.184,9.184,0,0,0-11.966,0,7.011,7.011,0,0,0,0,10.7A8.7,8.7,0,0,0,95.493,15.132ZM90.966,3.518a6.949,6.949,0,0,1,9.054,0A5.2,5.2,0,0,1,101.9,7.566a5.2,5.2,0,0,1-1.876,4.048,6.948,6.948,0,0,1-9.054,0A5.2,5.2,0,0,1,89.09,7.566,5.2,5.2,0,0,1,90.966,3.518Zm0,0" transform="translate(-81.692 0)"/><path class="a" d="M27.932,256.3a17.552,17.552,0,0,0-.272-1.985,14.815,14.815,0,0,0-.522-2,9.549,9.549,0,0,0-.877-1.861,7.093,7.093,0,0,0-1.321-1.612,5.9,5.9,0,0,0-1.9-1.117,6.961,6.961,0,0,0-2.424-.411,2.556,2.556,0,0,0-1.314.521c-.394.24-.854.518-1.369.826a8.12,8.12,0,0,1-1.771.73,7.324,7.324,0,0,1-4.332,0,8.094,8.094,0,0,1-1.77-.73c-.509-.3-.97-.583-1.37-.826a2.554,2.554,0,0,0-1.313-.521,6.952,6.952,0,0,0-2.424.411,5.891,5.891,0,0,0-1.9,1.117,7.094,7.094,0,0,0-1.321,1.612,9.567,9.567,0,0,0-.876,1.861,14.851,14.851,0,0,0-.521,2A17.433,17.433,0,0,0,.067,256.3c-.045.6-.067,1.224-.067,1.855A5.046,5.046,0,0,0,1.655,262.1a6.2,6.2,0,0,0,4.265,1.456H22.08a6.2,6.2,0,0,0,4.265-1.456A5.044,5.044,0,0,0,28,258.153C28,257.52,27.977,256.9,27.932,256.3Zm-2.944,4.468a4.179,4.179,0,0,1-2.909.949H5.92a4.18,4.18,0,0,1-2.909-.949,3.29,3.29,0,0,1-1.044-2.613c0-.589.021-1.17.062-1.728a15.725,15.725,0,0,1,.246-1.788,13.1,13.1,0,0,1,.459-1.759,7.789,7.789,0,0,1,.713-1.513,5.256,5.256,0,0,1,.971-1.191,3.914,3.914,0,0,1,1.263-.735,4.8,4.8,0,0,1,1.549-.28c.069.034.192.1.39.221.4.247.87.528,1.385.836a10.082,10.082,0,0,0,2.223.93,9.417,9.417,0,0,0,5.542,0,10.093,10.093,0,0,0,2.224-.93c.527-.315.98-.589,1.384-.835.2-.121.321-.187.39-.221a4.8,4.8,0,0,1,1.549.28,3.92,3.92,0,0,1,1.263.735,5.242,5.242,0,0,1,.971,1.192,7.763,7.763,0,0,1,.714,1.513,13.067,13.067,0,0,1,.459,1.759,15.858,15.858,0,0,1,.246,1.788h0c.042.556.063,1.137.063,1.727A3.289,3.289,0,0,1,24.989,260.766Zm0,0" transform="translate(0 -232.143)"/></svg>