<svg xmlns="http://www.w3.org/2000/svg" width="47.367" height="47.367" viewBox="0 0 47.367 47.367"><defs><style>.a{fill:#707070;}</style></defs><g transform="translate(0 0)"><path class="a" d="M23.683,47.367a23.681,23.681,0,1,1,18.109-8.419A23.933,23.933,0,0,1,39,41.749a23.69,23.69,0,0,1-15.315,5.617Zm0-44.406A20.724,20.724,0,0,0,7.837,37.039a20.965,20.965,0,0,0,2.447,2.453,20.725,20.725,0,0,0,26.8,0,20.964,20.964,0,0,0,2.448-2.454A20.724,20.724,0,0,0,23.683,2.96Z" transform="translate(0)"/><path class="a" d="M168.881,81.763a8.881,8.881,0,1,1,8.881-8.881A8.891,8.891,0,0,1,168.881,81.763Zm0-14.8a5.921,5.921,0,1,0,5.921,5.921A5.928,5.928,0,0,0,168.881,66.96Z" transform="translate(-145.198 -58.079)"/><path class="a" d="M110.641,245.378a1.481,1.481,0,0,1-1.437-1.841,13.334,13.334,0,0,0-12.726-16.576h-.39a13.334,13.334,0,0,0-12.726,16.576,1.48,1.48,0,0,1-2.871.721A16.287,16.287,0,0,1,96.052,224h.461a16.295,16.295,0,0,1,15.562,20.257A1.481,1.481,0,0,1,110.641,245.378Z" transform="translate(-72.599 -203.277)"/></g></svg>